<?xml version="1.0" encoding="UTF-8"?>
<svg xmlns="http://www.w3.org/2000/svg" xmlns:xlink="http://www.w3.org/1999/xlink" width="375pt" height="374.999991pt" viewBox="0 0 375 374.999991" version="1.2">
<defs>
<clipPath id="clip1">
  <path d="M 14.832031 14.832031 L 187.332031 14.832031 L 187.332031 187.332031 L 14.832031 187.332031 Z M 14.832031 14.832031 "/>
</clipPath>
<clipPath id="clip2">
  <path d="M 187.5 14.832031 L 360 14.832031 L 360 187.332031 L 187.5 187.332031 Z M 187.5 14.832031 "/>
</clipPath>
<clipPath id="clip3">
  <path d="M 187.5 187.5 L 360 187.5 L 360 360 L 187.5 360 Z M 187.5 187.5 "/>
</clipPath>
<clipPath id="clip4">
  <path d="M 14.832031 187.5 L 187.332031 187.5 L 187.332031 360 L 14.832031 360 Z M 14.832031 187.5 "/>
</clipPath>
</defs>
<g id="surface1">
<g clip-path="url(#clip1)" clip-rule="nonzero">
<path style=" stroke:none;fill-rule:nonzero;fill:rgb(18.429565%,25.489807%,58.81958%);fill-opacity:1;" d="M 168.164062 14.832031 L 34 14.832031 C 23.429688 14.832031 14.832031 23.429688 14.832031 34 L 14.832031 168.164062 C 14.832031 178.734375 23.429688 187.332031 34 187.332031 L 168.164062 187.332031 C 178.734375 187.332031 187.332031 178.734375 187.332031 168.164062 L 187.332031 34 C 187.332031 23.429688 178.734375 14.832031 168.164062 14.832031 Z M 122.269531 133.867188 C 126.449219 133.867188 129.832031 137.25 129.832031 141.429688 C 129.832031 145.605469 126.449219 149 122.269531 149 C 122.269531 149 91.5 149 81.914062 149 C 73.050781 149 72.332031 141.992188 72.332031 139.664062 C 72.332031 137.414062 73.089844 135.207031 74.527344 133.433594 C 81.972656 124.226562 105.558594 94.535156 107.253906 91.652344 C 109.277344 88.222656 110.769531 83.859375 110.734375 79.722656 C 110.722656 78.695312 110.617188 77.679688 110.40625 76.703125 C 109.457031 72.292969 105.96875 68.296875 101.082031 68.296875 C 96.855469 68.296875 92.648438 70.558594 90.828125 75.6875 C 89.457031 79.308594 86.015625 81.914062 81.914062 81.914062 C 76.625 81.914062 72.332031 77.621094 72.332031 72.332031 C 72.332031 67.042969 80.574219 53.164062 101.082031 53.164062 C 110.820312 53.164062 116.359375 55.503906 121.742188 60.179688 C 127.128906 64.855469 129.832031 71.449219 129.832031 79.980469 C 129.832031 84.65625 128 91.976562 123.460938 98.074219 C 120.21875 102.421875 97.421875 133.867188 97.421875 133.867188 Z M 122.269531 133.867188 "/>
</g>
<path style=" stroke:none;fill-rule:nonzero;fill:rgb(18.429565%,25.489807%,58.81958%);fill-opacity:1;" d="M 273.75 69.457031 C 261.292969 69.457031 261.292969 84.789062 261.292969 90.539062 L 261.292969 110.664062 C 261.292969 121.207031 263.207031 131.75 273.75 131.75 C 284.292969 131.75 286.207031 120.25 286.207031 110.664062 L 286.207031 90.539062 C 286.207031 85.75 286.207031 69.457031 273.75 69.457031 Z M 273.75 69.457031 "/>
<g clip-path="url(#clip2)" clip-rule="nonzero">
<path style=" stroke:none;fill-rule:nonzero;fill:rgb(18.429565%,25.489807%,58.81958%);fill-opacity:1;" d="M 340.832031 14.832031 L 206.667969 14.832031 C 196.125 14.832031 187.5 23.457031 187.5 34 L 187.5 168.164062 C 187.5 178.707031 196.125 187.332031 206.667969 187.332031 L 340.832031 187.332031 C 351.375 187.332031 360 178.707031 360 168.164062 L 360 34 C 360 23.457031 351.375 14.832031 340.832031 14.832031 Z M 303.457031 108.75 C 303.457031 115.457031 303.457031 146.125 273.75 146.125 C 244.042969 146.125 244.042969 114.5 244.042969 108.75 L 244.042969 93.414062 C 244.042969 69.457031 253.625 56.039062 273.75 56.039062 C 293.875 56.039062 303.457031 70.414062 303.457031 93.414062 Z M 303.457031 108.75 "/>
</g>
<path style=" stroke:none;fill-rule:nonzero;fill:rgb(18.429565%,25.489807%,58.81958%);fill-opacity:1;" d="M 273.75 265.125 C 282.375 265.125 284.292969 256.5 284.292969 253.625 C 284.292969 249.792969 283.332031 242.125 273.75 242.125 C 264.167969 242.125 263.207031 249.792969 263.207031 253.625 C 263.207031 257.457031 264.167969 265.125 273.75 265.125 Z M 273.75 265.125 "/>
<path style=" stroke:none;fill-rule:nonzero;fill:rgb(18.429565%,25.489807%,58.81958%);fill-opacity:1;" d="M 273.75 279.5 C 262.25 279.5 261.292969 290.042969 261.292969 291.957031 C 261.292969 304.417969 271.832031 304.417969 273.75 304.417969 C 279.5 304.417969 286.207031 301.542969 286.207031 291.957031 C 286.207031 291 285.25 279.5 273.75 279.5 Z M 273.75 279.5 "/>
<g clip-path="url(#clip3)" clip-rule="nonzero">
<path style=" stroke:none;fill-rule:nonzero;fill:rgb(18.429565%,25.489807%,58.81958%);fill-opacity:1;" d="M 340.832031 187.5 L 206.667969 187.5 C 196.125 187.5 187.5 196.125 187.5 206.667969 L 187.5 340.832031 C 187.5 351.375 196.125 360 206.667969 360 L 340.832031 360 C 351.375 360 360 351.375 360 340.832031 L 360 206.667969 C 360 196.125 351.375 187.5 340.832031 187.5 Z M 273.75 318.792969 C 246.917969 318.792969 244.042969 300.582031 244.042969 292.917969 C 244.042969 279.5 253.625 273.75 258.417969 271.832031 C 254.582031 269.917969 245.957031 264.167969 245.957031 252.667969 C 245.957031 231.582031 264.167969 227.75 273.75 227.75 C 296.75 227.75 301.542969 243.082031 301.542969 252.667969 C 301.542969 264.167969 292.917969 269.917969 289.082031 271.832031 C 292.917969 273.75 303.457031 280.457031 303.457031 292.917969 C 303.457031 315.917969 283.332031 318.792969 273.75 318.792969 Z M 273.75 318.792969 "/>
</g>
<g clip-path="url(#clip4)" clip-rule="nonzero">
<path style=" stroke:none;fill-rule:nonzero;fill:rgb(18.429565%,25.489807%,58.81958%);fill-opacity:1;" d="M 30.515625 187.5 C 21.851562 187.5 14.832031 194.519531 14.832031 203.183594 L 14.832031 344.316406 C 14.832031 352.980469 21.851562 360 30.515625 360 L 171.648438 360 C 180.316406 360 187.332031 352.980469 187.332031 344.316406 L 187.332031 203.183594 C 187.332031 194.519531 180.316406 187.5 171.648438 187.5 Z M 96.058594 235.082031 L 118.738281 235.082031 L 118.738281 285.464844 L 128.863281 285.464844 L 128.863281 298.910156 L 118.738281 298.910156 L 118.738281 312.417969 L 103.289062 312.417969 L 103.289062 298.910156 L 65.445312 298.910156 L 65.445312 284.609375 C 72.417969 271.472656 82.503906 255.5 96.058594 235.082031 Z M 102.8125 247.667969 C 95.738281 258.230469 88.824219 269.054688 79.980469 285.082031 L 79.980469 285.941406 L 103.671875 285.941406 L 103.671875 247.667969 Z M 102.8125 247.667969 "/>
</g>
</g>
</svg>
