<?xml version="1.0" encoding="UTF-8"?>
<svg xmlns="http://www.w3.org/2000/svg" xmlns:xlink="http://www.w3.org/1999/xlink" width="375pt" height="374.999991pt" viewBox="0 0 375 374.999991" version="1.2">
<g id="surface1">
<path style="fill-rule:nonzero;fill:rgb(18.429565%,25.489807%,58.81958%);fill-opacity:1;stroke-width:4.061;stroke-linecap:round;stroke-linejoin:round;stroke:rgb(0%,0%,0%);stroke-opacity:1;stroke-miterlimit:4;" d="M 89.469598 1065.901375 C 93.197114 1071.999962 88.987366 1075.898521 83.309972 1078.798647 C 75.280116 1082.901788 55.41277 1080.900095 48.611428 1076.799638 C 42.368157 1072.99847 39.597466 1067.499717 42.570297 1062.600223 " transform="matrix(-0.399989,0.977596,-0.976989,-0.400237,1098.270628,429.27698)"/>
<path style="fill-rule:nonzero;fill:rgb(18.429565%,25.489807%,58.81958%);fill-opacity:1;stroke-width:4.061;stroke-linecap:round;stroke-linejoin:round;stroke:rgb(0%,0%,0%);stroke-opacity:1;stroke-miterlimit:4;" d="M 21.355159 1020.999883 C 20.498588 1036.69986 35.245543 1061.300924 52.720158 1067.10099 C 61.739384 1070.001553 82.042603 1070.901199 89.210247 1065.599734 C 101.488257 1056.598741 107.690789 1044.899372 110.498243 1030.499768 C 111.490858 1025.399434 111.74146 1019.599327 111.450966 1014.800408 C 110.161743 997.236138 96.621808 986.91445 90.842836 982.871217 C 90.661256 971.418598 91.821371 957.621461 93.659304 944.650336 C 96.410164 925.252098 69.317608 930.138754 66.928361 948.341403 C 65.80891 956.860192 63.871894 963.850515 61.818205 982.931339 C 58.676124 972.650793 53.388523 957.890987 51.613753 947.690371 C 48.687213 930.860407 24.556571 940.951622 28.564974 961.448865 C 31.296718 975.41187 35.636483 985.689859 38.305046 998.991031 C 35.497372 1001.200056 22.250022 1004.700485 21.355159 1020.999883 Z M 21.355159 1020.999883 " transform="matrix(-0.399989,0.977596,-0.976989,-0.400237,1098.270628,429.27698)"/>
<path style=" stroke:none;fill-rule:nonzero;fill:rgb(0%,0%,0%);fill-opacity:1;" d="M 114.507812 94.269531 C 100.925781 92.171875 93.476562 94.203125 89.882812 94.625 C 98.46875 95.722656 100.675781 95.769531 109.707031 97.617188 C 111.242188 97.929688 112.976562 98.546875 114.960938 99.636719 Z M 114.507812 94.269531 "/>
<path style=" stroke:none;fill-rule:nonzero;fill:rgb(0%,0%,0%);fill-opacity:1;" d="M 102.394531 122.679688 C 94.878906 119.746094 85.125 118.015625 78.394531 118.523438 C 86.597656 121.535156 93.078125 123.90625 100.960938 126.589844 C 100.96875 126.570312 101.597656 124.613281 102.390625 122.679688 Z M 102.394531 122.679688 "/>
<path style="fill:none;stroke-width:4.061;stroke-linecap:round;stroke-linejoin:round;stroke:rgb(0%,0%,0%);stroke-opacity:1;stroke-miterlimit:4;" d="M 79.641521 1058.302163 C 83.677437 1048.601341 83.617097 1045.799281 84.836652 1040.901906 " transform="matrix(-0.399989,0.977596,-0.976989,-0.400237,1098.270628,429.27698)"/>
<path style="fill:none;stroke-width:4.061;stroke-linecap:round;stroke-linejoin:round;stroke:rgb(0%,0%,0%);stroke-opacity:1;stroke-miterlimit:4;" d="M 70.261393 1058.999848 C 71.954265 1047.499496 71.686511 1041.799657 72.114326 1034.099796 " transform="matrix(-0.399989,0.977596,-0.976989,-0.400237,1098.270628,429.27698)"/>
<path style="fill:none;stroke-width:4.061;stroke-linecap:round;stroke-linejoin:round;stroke:rgb(0%,0%,0%);stroke-opacity:1;stroke-miterlimit:4;" d="M 59.041854 1059.499022 C 59.138905 1051.498769 58.443294 1047.701343 57.993849 1042.699618 " transform="matrix(-0.399989,0.977596,-0.976989,-0.400237,1098.270628,429.27698)"/>
<path style=" stroke:none;fill-rule:nonzero;fill:rgb(0%,0%,0%);fill-opacity:1;" d="M 108.804688 65.050781 C 90.855469 62.140625 86.445312 54.519531 79.496094 47.804688 C 86.035156 56.359375 86.167969 64.398438 106.644531 69.019531 Z M 108.804688 65.050781 "/>
<path style="fill-rule:nonzero;fill:rgb(18.429565%,25.489807%,58.81958%);fill-opacity:1;stroke-width:4.061;stroke-linecap:round;stroke-linejoin:round;stroke:rgb(0%,0%,0%);stroke-opacity:1;stroke-miterlimit:4;" d="M 89.470832 1065.899609 C 93.196539 1072.025905 88.987573 1075.949138 83.30968 1078.848174 C 75.279492 1082.945837 55.414255 1080.949457 48.610957 1076.834197 C 42.368585 1073.054616 39.597426 1067.483094 42.570071 1062.648033 " transform="matrix(0.664853,0.820568,-0.820059,0.665266,920.447416,-459.55881)"/>
<path style="fill-rule:nonzero;fill:rgb(18.429565%,25.489807%,58.81958%);fill-opacity:1;stroke-width:4.061;stroke-linecap:round;stroke-linejoin:round;stroke:rgb(0%,0%,0%);stroke-opacity:1;stroke-miterlimit:4;" d="M -3.602953 1025.599633 C -7.65093 1033.616517 6.212987 1038.587918 21.41388 1041.399395 C 27.315297 1042.487518 38.920188 1062.346898 52.718628 1067.093733 C 61.695117 1070.184306 82.044196 1070.943879 89.209605 1065.664006 C 101.485129 1056.629416 107.692299 1044.980456 110.496216 1030.577112 C 111.489352 1025.470933 111.744003 1019.637425 111.455301 1014.873391 C 110.500251 999.223065 124.405314 961.209758 123.337444 957.195402 C 120.366856 946.050998 107.464891 952.581852 104.774438 959.746347 C 103.468957 963.217916 90.915821 987.556047 90.843033 982.895612 C 90.662835 971.450785 91.820361 957.651344 93.65904 944.685179 C 96.412697 925.282411 69.317961 930.1716 66.927781 948.368588 C 65.809673 956.893584 63.87083 963.876717 61.820056 982.958588 C 58.6743 972.682004 53.388853 957.922222 51.612804 947.717696 C 48.68671 930.893311 24.558051 940.978551 28.566469 961.476521 C 31.296622 975.436451 38.968219 1000.04751 37.767131 1024.305355 C 28.343692 1016.446298 8.606003 1001.41593 -3.605826 1025.597304 Z M -3.602953 1025.599633 " transform="matrix(0.664853,0.820568,-0.820059,0.665266,920.447416,-459.55881)"/>
<path style=" stroke:none;fill-rule:nonzero;fill:rgb(0%,0%,0%);fill-opacity:1;" d="M 154.316406 242.976562 C 145.953125 253.894531 144.15625 261.410156 142.832031 264.734375 C 147.890625 257.75 148.988281 255.84375 154.945312 248.796875 C 155.957031 247.601562 157.332031 246.375 159.238281 245.160156 Z M 154.316406 242.976562 "/>
<path style=" stroke:none;fill-rule:nonzero;fill:rgb(0%,0%,0%);fill-opacity:1;" d="M 173.402344 267.257812 C 167.226562 272.4375 161.023438 280.171875 158.230469 286.328125 C 161.558594 283.449219 167.238281 278.449219 172.210938 273.976562 C 173.558594 272.761719 175.0625 272.007812 177.636719 271.832031 C 175.914062 270.609375 174.722656 268.878906 173.402344 267.257812 Z M 173.402344 267.257812 "/>
<path style="fill:none;stroke-width:4.061;stroke-linecap:round;stroke-linejoin:round;stroke:rgb(0%,0%,0%);stroke-opacity:1;stroke-miterlimit:4;" d="M 79.643009 1058.298598 C 83.678604 1048.623548 83.616745 1045.834453 84.837504 1040.893764 " transform="matrix(0.664853,0.820568,-0.820059,0.665266,920.447416,-459.55881)"/>
<path style="fill:none;stroke-width:4.061;stroke-linecap:round;stroke-linejoin:round;stroke:rgb(0%,0%,0%);stroke-opacity:1;stroke-miterlimit:4;" d="M 70.259431 1058.998305 C 71.953916 1047.525257 71.683 1041.846784 72.117051 1034.100944 " transform="matrix(0.664853,0.820568,-0.820059,0.665266,920.447416,-459.55881)"/>
<path style="fill:none;stroke-width:4.061;stroke-linecap:round;stroke-linejoin:round;stroke:rgb(0%,0%,0%);stroke-opacity:1;stroke-miterlimit:4;" d="M 59.040829 1059.501163 C 59.137402 1051.519823 58.441641 1047.745225 57.991587 1042.669369 " transform="matrix(0.664853,0.820568,-0.820059,0.665266,920.447416,-459.55881)"/>
<path style="fill-rule:nonzero;fill:rgb(18.429565%,25.489807%,58.81958%);fill-opacity:1;stroke-width:4.061;stroke-linecap:round;stroke-linejoin:round;stroke:rgb(0%,0%,0%);stroke-opacity:1;stroke-miterlimit:4;" d="M 89.472887 1065.900763 C 93.197197 1071.999905 88.987847 1075.898518 83.311289 1078.799686 C 75.280348 1082.899499 55.413109 1080.901875 48.61233 1076.79935 C 42.36969 1073.000732 39.598795 1067.49807 42.568936 1062.599139 " transform="matrix(0.167314,1.042981,1.042334,-0.167418,-771.935681,233.225711)"/>
<path style="fill-rule:nonzero;fill:rgb(18.429565%,25.489807%,58.81958%);fill-opacity:1;stroke-width:4.061;stroke-linecap:round;stroke-linejoin:round;stroke:rgb(0%,0%,0%);stroke-opacity:1;stroke-miterlimit:4;" d="M 21.352338 1020.999859 C 20.498128 1036.700759 35.248258 1061.300826 52.718427 1067.101035 C 61.741691 1069.999852 82.043388 1070.900895 89.211402 1065.601704 C 101.489211 1056.600393 107.68936 1044.898261 110.501438 1030.498303 C 111.488376 1025.400544 111.740784 1019.599966 111.44986 1014.801018 C 110.424816 995.185721 104.232349 980.593455 90.845095 982.869773 C 86.755759 966.796898 61.939957 970.649122 61.817795 982.93088 C 49.153386 968.687921 30.73187 981.973297 38.305936 998.989597 C 35.499957 1001.20138 22.248983 1004.700025 21.352338 1020.999859 Z M 21.352338 1020.999859 " transform="matrix(0.167314,1.042981,1.042334,-0.167418,-771.935681,233.225711)"/>
<path style=" stroke:none;fill-rule:nonzero;fill:rgb(0%,0%,0%);fill-opacity:1;" d="M 263.902344 135.214844 C 277.496094 137.234375 282.617188 134.730469 286.207031 134.289062 C 277.617188 133.242188 275.410156 133.203125 266.367188 131.410156 C 264.828125 131.105469 263.246094 130.632812 261.371094 129.304688 L 261.457031 135.839844 C 261.148438 135.933594 262.921875 135.21875 263.902344 135.214844 Z M 263.902344 135.214844 "/>
<path style=" stroke:none;fill-rule:nonzero;fill:rgb(0%,0%,0%);fill-opacity:1;" d="M 266.398438 165.375 C 274.457031 165.699219 284.402344 165.179688 290.601562 162.503906 C 286.167969 162.390625 274.722656 161.339844 268.042969 161.304688 C 268.042969 161.292969 268.054688 161.316406 266.398438 165.375 Z M 266.398438 165.375 "/>
<path style="fill:none;stroke-width:4.061;stroke-linecap:round;stroke-linejoin:round;stroke:rgb(0%,0%,0%);stroke-opacity:1;stroke-miterlimit:4;" d="M 79.642575 1058.300834 C 83.676954 1048.59904 83.617429 1045.801642 84.837892 1040.89875 " transform="matrix(0.167314,1.042981,1.042334,-0.167418,-771.935681,233.225711)"/>
<path style="fill:none;stroke-width:4.061;stroke-linecap:round;stroke-linejoin:round;stroke:rgb(0%,0%,0%);stroke-opacity:1;stroke-miterlimit:4;" d="M 70.260706 1059.001062 C 71.954088 1047.501432 71.686721 1041.799278 72.117495 1034.100017 " transform="matrix(0.167314,1.042981,1.042334,-0.167418,-771.935681,233.225711)"/>
<path style="fill:none;stroke-width:4.061;stroke-linecap:round;stroke-linejoin:round;stroke:rgb(0%,0%,0%);stroke-opacity:1;stroke-miterlimit:4;" d="M 59.041548 1059.501524 C 59.139119 1051.499726 58.44289 1047.698989 57.992638 1042.700759 " transform="matrix(0.167314,1.042981,1.042334,-0.167418,-771.935681,233.225711)"/>
<path style=" stroke:none;fill-rule:nonzero;fill:rgb(0%,0%,0%);fill-opacity:1;" d="M 274.363281 103.714844 C 292.503906 104.964844 298.53125 98.546875 306.824219 93.589844 C 298.511719 100.429688 296.554688 108.230469 275.5625 108.070312 Z M 274.363281 103.714844 "/>
</g>
</svg>
